<?xml version="1.0" standalone="no"?> <!DOCTYPE svg PUBLIC "-//W3C//DTD SVG 1.0//EN" "http://www.w3.org/TR/2001/REC-SVG-20010904/DTD/svg10.dtd" > <svg xmlns="http://www.w3.org/2000/svg" width="100%" height="100%">
<defs >
<font id="palab0" horiz-adv-x="940" ><font-face
    font-family="Palatino Linotype"
    units-per-em="2048"
    panose-1="2 4 7 2 6 3 5 10 2 4"
    ascent="1499"
    descent="-582"
    alphabetic="0" />
<missing-glyph horiz-adv-x="1540" d="M1490 794Q1490 714 1444 653Q1388 580 1292 580Q1242 580 1194 602Q1242 624 1242 676Q1242 742 1172 742Q1046 742 1005 575H887Q911 784 1029 899Q1130 998 1260 998Q1377 998 1439 931Q1490 875 1490 794ZM980 1206Q980
1169 899 957T818 575H722Q722 744 641 956T560 1206Q560 1273 642 1342Q706 1395 770 1448Q834 1395 898 1342Q980 1273 980 1206ZM1095 478Q1095 433 1056 433H484Q445 433 445 478Q445 523 484 523H1056Q1095 523 1095 478ZM1170 0Q1075 15 994 121Q910 231
888 381H1000Q1031 158 1170 0ZM653 575H535Q494 742 368 742Q298 742 298 676Q298 624 346 602Q298 580 248 580Q152 580 97 653Q50 714 50 794Q50 875 101 931Q163 998 280 998Q410 998 511 899Q629 784 653 575ZM839 214Q839 147 818 53T770 -93Q744 -41 723
53T701 214Q701 284 721 381H819Q839 284 839 214ZM652 381Q630 231 546 121Q465 15 370 0Q509 158 540 381H652Z" />
<glyph unicode=" " glyph-name="null" horiz-adv-x="512" />
<glyph unicode="!" glyph-name="null" horiz-adv-x="569" d="M246 412Q238 453 224 585T184 891Q139 1192 139 1281Q139 1295 140 1323Q163 1338 345 1415L448 1414Q449 1384 449 1374Q449 1302 427 1145L380 807L331 447L255 405L246 412ZM290 284Q353 284 399
239T445 127Q445 62 400 16T290 -31Q225 -31 180 15T134 127Q134 191 179 237T290 284Z" />
<glyph unicode="&quot;" glyph-name="null" horiz-adv-x="789" d="M321 1346Q321 1334 314 1297L302 1233L245 937H177L129 1233Q126 1250 117 1297Q110 1335 110 1346Q110 1390 141 1420T216 1451Q260 1451 290 1421T321 1346ZM679 1346Q679 1334 672 1297L660
1233L603 937H535L487 1233Q484 1250 475 1297Q468 1335 468 1346Q468 1390 499 1420T574 1451Q618 1451 648 1421T679 1346Z" />
<glyph unicode="#" glyph-name="null" horiz-adv-x="986" d="M173 0L236 341H88L117 497H266L342 907H194L223 1063H371L426 1359H502L446 1063H675L730 1359H805L750 1063H898L869 907H721L644 497H792L763 341H615L551 0H476L540 341H311L247 0H173ZM340 497H569L646
907H417L340 497Z" />
<glyph unicode="$" glyph-name="null" horiz-adv-x="1024" d="M966 447Q966 253 853 125T547 -30V-227L536 -238H460L450 -227V-36Q256 -36 66 45L60 58Q79 175 81 365L92 375H152L164 364L165 290Q166 241 179 201Q268 83 450 74V570Q249 608 163 682Q50 779
50 948Q50 1189 242 1311Q329 1366 450 1381V1481L460 1492H535L547 1482V1385Q744 1377 880 1312L887 1297Q874 1241 866 1104L861 1019L850 1009H789L778 1019Q775 1069 775 1092Q775 1151 765 1174Q701 1267 547 1274V826Q750 797 846 725Q966 633 966 447ZM450
842V1269Q267 1222 267 1042Q267 878 450 842ZM746 337Q746 521 547 554V82Q638 106 692 174T746 337Z" />
<glyph unicode="%" glyph-name="null" horiz-adv-x="1821" d="M1742 337Q1742 175 1645 73T1386 -29Q1231 -29 1134 69T1036 322Q1036 482 1134 583T1392 684Q1532 684 1634 599Q1742 509 1742 337ZM1314 1482L565 -76H497L491 -61L1239 1496H1307L1314 1482ZM787
1104Q787 942 689 840T430 737Q219 737 122 912Q80 988 80 1088Q80 1248 178 1349T436 1450Q592 1450 689 1355T787 1104ZM1531 339Q1531 615 1391 615Q1248 615 1248 322Q1248 39 1384 39Q1488 39 1518 176Q1531 235 1531 339ZM575 1105Q575 1382 435 1382Q292
1382 292 1089Q292 806 428 806Q527 806 560 932Q575 990 575 1105Z" />
<glyph unicode="&amp;" glyph-name="null" horiz-adv-x="1706" d="M1652 238L1672 192L1669 177Q1649 159 1578 81T1485 -26Q1413 -43 1368 -43Q1256 -43 1161 2T990 105Q809 -44 565 -44Q340 -44 218 79T96 368Q96 511 184 610T418 779Q350 931 350 1056Q350
1144 384 1183L480 1296Q541 1368 564 1384T640 1417T747 1434Q855 1434 917 1373T979 1209Q979 1106 906 1012T653 805Q730 683 850 546T1080 326Q1144 430 1144 523Q1144 565 1133 606T1105 674H925L916 686Q942 726 981 814Q1133 809 1197 809Q1493 809 1625
825L1635 817Q1601 725 1599 668L1589 658Q1455 670 1297 672Q1307 627 1307 587Q1307 517 1279 444T1170 271Q1232 225 1320 198T1486 170Q1509 170 1526 175T1638 244L1652 238ZM610 890Q701 953 749 1019T798 1162Q798 1224 763 1264T672 1305Q611 1305 575
1262T538 1153Q538 1040 610 890ZM458 694Q412 666 377 614T342 492Q342 387 395 299T528 157T705 103Q808 103 904 167Q759 291 659 408T458 694Z" />
<glyph unicode="&apos;" glyph-name="null" horiz-adv-x="465" d="M338 1346Q338 1334 331 1297L319 1233L262 937H194L146 1233Q143 1250 134 1297Q127 1335 127 1346Q127 1390 158 1420T233 1451Q277 1451 307 1421T338 1346Z" />
<glyph unicode="(" glyph-name="null" horiz-adv-x="682" d="M562 -223Q456 -161 340 -11T176 286T128 624Q128 814 175 962T327 1254T558 1483H573L612 1448V1433Q544 1350 510 1289T451 1135T413 906T399 609Q399 305 448 133T612 -168V-182L577 -221L562 -223Z" />
<glyph unicode=")" glyph-name="null" horiz-adv-x="682" d="M109 1483H125Q279 1379 416 1162T554 624Q554 475 528 358T432 121T276 -91T121 -223L106 -221L70 -182V-168Q175 -53 229 117T284 609Q284 768 270 905T232 1133T174 1286T71 1433L70 1448L109 1483Z" />
<glyph unicode="*" glyph-name="null" horiz-adv-x="909" d="M816 978L795 957Q650 997 484 1027Q550 907 645 776L638 762Q547 727 470 687L439 700Q436 777 414 1003Q329 917 209 786L175 790Q144 864 90 945L98 961L380 1068Q238 1139 97 1192L90 1207Q161
1310 181 1365L214 1366Q273 1292 421 1129Q440 1315 448 1425L465 1438Q549 1400 652 1394L663 1364Q614 1296 494 1100Q588 1115 784 1165L795 1157Q801 1065 816 978Z" />
<glyph unicode="+" glyph-name="null" horiz-adv-x="1024" d="M993 515H601V129H424V515H32V687H424V1073H601V687H993V515Z" />
<glyph unicode="," glyph-name="null" horiz-adv-x="512" d="M0 -328Q136 -68 168 211L277 233Q358 249 438 283L474 249Q435 156 342 -15T173 -290L30 -353L0 -328Z" />
<glyph unicode="-" glyph-name="null" horiz-adv-x="682" d="M581 392H49L34 408Q50 434 73 511T101 618H628L647 598Q608 532 581 392Z" />
<glyph unicode="." glyph-name="null" horiz-adv-x="512" d="M256 286Q320 286 366 241T412 127Q412 61 366 15T256 -31Q192 -31 146 15T99 127Q99 193 145 239T256 286Z" />
<glyph unicode="/" glyph-name="null" horiz-adv-x="606" d="M-14 -51L472 1499L486 1508H620L627 1494L141 -57L128 -65H-7L-14 -51Z" />
<glyph unicode="0" glyph-name="null" horiz-adv-x="1024" d="M959 724Q959 332 861 163Q741 -44 498 -44Q263 -44 155 138Q66 288 66 636Q66 910 120 1066Q169 1210 278 1290Q382 1366 526 1366Q751 1366 850 1230Q959 1081 959 724ZM712 560Q712 951 656 1121Q611
1257 501 1257Q399 1257 356 1153Q310 1043 310 777Q310 443 350 267Q369 183 390 146Q439 60 524 60Q668 60 697 282Q712 398 712 560Z" />
<glyph unicode="1" glyph-name="null" horiz-adv-x="1024" d="M934 3L923 -9Q783 0 581 0Q384 0 166 -9L155 2V63L167 73Q218 79 266 83Q352 90 376 100Q393 108 405 137Q424 184 424 517V766Q424 878 420 1050L418 1125Q418 1175 397 1175Q388 1175 338 1152Q201
1089 103 1041L91 1048Q85 1105 70 1175L71 1183Q347 1261 688 1392L709 1377Q705 1318 698 1202Q695 1158 692 966L689 573Q689 151 703 120Q713 97 733 92Q769 82 921 74L934 64V3Z" />
<glyph unicode="2" glyph-name="null" horiz-adv-x="1024" d="M966 225Q954 108 963 3L951 -11Q676 0 501 0Q318 0 67 -10L54 2V93L258 301Q487 534 557 655Q598 726 615 784T632 909Q632 1148 413 1148Q291 1148 219 1055Q208 1012 180 905L169 895H112L102 905L139
1239Q265 1365 490 1365Q691 1365 800 1260Q901 1164 901 1005Q901 940 886 885Q855 773 759 659Q679 564 517 409Q458 351 338 238L340 225H517Q594 225 663 227L836 232Q902 234 951 238L966 225Z" />
<glyph unicode="3" glyph-name="null" horiz-adv-x="1024" d="M937 464Q937 251 760 104T343 -44Q216 -44 99 11Q81 185 51 305L57 319L107 334L119 329Q218 76 436 76Q549 76 617 149T686 351Q686 478 611 547Q540 613 420 613Q365 613 301 595L289 608Q311 679
327 760H409Q498 760 563 823T628 975Q628 1058 571 1110T427 1162Q291 1162 242 1092Q219 1059 198 997L187 964L173 955L122 959L112 972L147 1135Q162 1204 169 1270Q299 1368 496 1368Q663 1368 762 1286Q856 1206 856 1077Q856 891 634 775Q746 775 837 699Q937
616 937 464Z" />
<glyph unicode="4" glyph-name="null" horiz-adv-x="1024" d="M968 4L957 -8Q812 0 634 0Q533 0 301 -8L291 3V65L302 76L409 84Q489 90 504 106Q524 128 527 214L531 345H399L199 343Q145 343 40 340L26 423Q67 550 244 878Q426 1215 527 1341L778 1391L796 1374Q778
1181 778 745V510H810Q857 510 950 515L962 504Q959 406 962 356L950 344Q934 345 899 345H778Q778 125 800 104Q818 87 877 82Q922 78 958 73L968 64V4ZM543 1206Q410 993 346 873Q302 791 173 510H532L543 1206Z" />
<glyph unicode="5" glyph-name="null" horiz-adv-x="1024" d="M928 483Q928 267 761 114Q590 -44 341 -44Q234 -44 111 3Q105 60 47 283L53 297L101 314L115 308Q215 77 436 77Q593 77 657 214Q686 276 686 358Q686 492 614 569T415 647Q301 647 186 563L147 585Q160
778 160 900V1038Q160 1186 145 1349L158 1359Q400 1348 565 1348Q672 1348 869 1359L878 1343Q866 1244 866 1200Q866 1175 869 1131L859 1118Q736 1124 564 1124Q357 1124 268 1116L260 789Q406 858 531 858Q714 858 821 756T928 483Z" />
<glyph unicode="6" glyph-name="null" horiz-adv-x="1024" d="M960 454Q960 166 756 23Q660 -44 516 -44Q312 -44 197 104Q79 254 79 527Q79 791 174 965Q275 1149 438 1257Q606 1368 813 1368L892 1303L861 1269Q825 1275 793 1275Q639 1275 523 1162Q471 1111
432 1033Q368 903 346 676Q480 801 507 812Q571 839 656 839Q785 839 869 743Q960 639 960 454ZM719 344Q719 499 661 582Q608 660 516 660Q397 660 358 557Q340 509 340 424Q340 204 423 113Q470 61 541 61Q719 61 719 344Z" />
<glyph unicode="7" glyph-name="null" horiz-adv-x="1024" d="M1007 1265Q775 842 629 513Q497 215 422 6L406 -5Q361 0 307 0Q254 0 191 -5L181 17L612 760Q665 850 694 907L789 1092L782 1110H529L350 1107Q263 1106 240 1098Q223 1092 213 1068T182 879L171
868L109 870L98 881Q104 992 104 1094Q104 1212 98 1351L111 1362Q350 1351 578 1351Q875 1351 996 1356L1007 1347V1265Z" />
<glyph unicode="8" glyph-name="null" horiz-adv-x="1024" d="M954 424Q954 307 912 217Q832 46 652 -17Q578 -43 472 -43Q246 -43 125 127Q71 203 71 327Q71 478 168 573Q200 604 309 663Q108 776 108 982Q108 1215 320 1323Q412 1370 529 1370Q701 1370 800
1284Q894 1202 894 1070Q894 891 703 778Q843 719 901 632Q954 553 954 424ZM724 1042Q724 1140 666 1199T507 1259Q417 1259 364 1203Q315 1151 315 1074Q315 998 379 936Q413 903 479 871Q502 859 549 837L603 814Q724 892 724 1042ZM731 309Q731 453 602 526Q518
574 422 613L395 624Q253 515 253 351Q253 256 288 197Q366 65 508 65Q607 65 669 133T731 309Z" />
<glyph unicode="9" glyph-name="null" horiz-adv-x="1024" d="M945 797Q945 532 850 358Q750 175 585 67Q415 -44 212 -44L133 21L157 60Q187 49 231 49Q387 49 504 165Q551 211 591 289Q655 412 679 648Q530 511 513 509Q447 485 371 485Q238 485 154 583Q64
688 64 870Q64 1162 269 1302Q366 1368 508 1368Q776 1368 889 1119Q945 996 945 797ZM684 900Q684 1085 630 1174T483 1263Q368 1263 327 1138Q305 1071 305 980Q305 825 362 742Q416 664 508 664Q626 664 666 769Q684 817 684 900Z" />
<glyph unicode=":" glyph-name="null" horiz-adv-x="512" d="M256 933Q321 933 366 886T412 775Q412 710 367 663T256 616Q191 616 145 662T99 775Q99 841 145 887T256 933ZM256 286Q320 286 366 241T412 127Q412 61 366 15T256 -31Q192 -31 146 15T99 127Q99
193 145 239T256 286Z" />
<glyph unicode=";" glyph-name="null" horiz-adv-x="512" d="M266 933Q330 933 376 888T422 775Q422 709 376 663T266 616Q201 616 155 662T109 775Q109 840 154 886T266 933ZM-53 -328Q83 -68 115 211L224 233Q305 249 385 283L421 249Q382 156 289 -15T120 -290L-23
-353L-53 -328Z" />
<glyph unicode="&lt;" glyph-name="null" horiz-adv-x="1024" d="M993 15L32 450V604L993 1041V865L265 528L993 191V15Z" />
<glyph unicode="=" glyph-name="null" horiz-adv-x="1024" d="M993 715H32V887H993V715ZM993 352H32V524H993V352Z" />
<glyph unicode="&gt;" glyph-name="null" horiz-adv-x="1024" d="M993 450L32 15V191L760 528L32 865V1041L993 604V450Z" />
<glyph unicode="?" glyph-name="null" horiz-adv-x="909" d="M358 396Q341 416 326 455T311 535Q311 591 335 643T412 758L467 823Q499 861 533 922T568 1047Q568 1121 516 1170T368 1220Q322 1220 289 1211T241 1188T203 1127T166 1035L151 1027L99 1036L91 1051L132
1197Q151 1262 156 1321Q212 1370 295 1395T466 1420Q577 1420 662 1382T794 1267T842 1103Q842 1012 799 935T658 781L590 728Q410 587 410 503Q410 470 429 425L423 411L374 390L358 396ZM400 285Q465 285 510 239T556 127Q556 62 511 16T400 -31Q336 -31 291
15T245 127Q245 193 291 239T400 285Z" />
<glyph unicode="@" glyph-name="null" horiz-adv-x="1428" d="M1409 751Q1409 489 1205 331Q1096 247 989 247Q921 247 872 282Q818 321 821 417Q710 258 588 258Q468 258 405 330Q346 398 346 520Q346 713 457 852Q577 1002 764 1002Q867 1002 917 938L925 979L1069
1005L1093 983Q1040 785 1007 618T974 389Q974 314 1027 314Q1090 314 1150 382Q1196 435 1225 505Q1268 611 1268 753Q1268 1010 1069 1124Q961 1186 802 1186Q643 1186 498 1106T271 870Q193 723 193 551Q193 331 318 186Q456 26 695 26Q964 26 1167 204L1184
188Q1177 164 1166 129Q952 -42 669 -42Q272 -42 100 229Q13 366 13 543Q13 734 114 894Q211 1047 383 1144Q566 1248 806 1248Q1059 1248 1232 1114Q1409 977 1409 751ZM866 825Q866 941 776 941Q666 941 581 720Q541 616 541 526Q541 418 569 383T635 348Q685
348 738 409Q804 485 846 673Q866 764 866 825Z" />
<glyph unicode="A" glyph-name="null" horiz-adv-x="1593" d="M1544 4L1535 -6Q1313 0 1267 0Q1083 0 925 -6L916 4V67L926 78L1013 83Q1068 86 1068 122Q1068 143 1040 216L959 427Q821 429 677 429Q599 429 445 427L401 305Q351 166 351 131Q351 93 398 86Q424
82 500 78L510 68V4L500 -6Q315 0 262 0Q221 0 59 -6L49 3V68L60 78Q163 84 186 119T363 536L624 1189Q653 1265 712 1418H854L1384 171Q1415 100 1440 91Q1473 79 1535 79L1544 68V4ZM910 542L696 1066L491 542Q573 539 704 539Q831 539 910 542Z" />
<glyph unicode="B" glyph-name="null" horiz-adv-x="1353" d="M1237 451Q1237 200 994 62Q874 -6 685 -6Q625 -6 586 -5L347 0Q219 0 149 -6L139 4V32L144 44Q218 91 224 103Q233 121 235 236L238 460V967Q238 1205 225 1277Q220 1306 191 1314Q176 1318 74 1324L64
1334V1402L74 1411Q163 1405 380 1405Q518 1405 629 1410Q717 1414 778 1414Q1057 1414 1144 1287Q1190 1220 1190 1133Q1190 991 1079 896Q1026 851 969 829Q903 804 825 786Q1237 768 1237 451ZM888 1084Q888 1305 658 1305Q582 1305 529 1297Q525 1192 525 1103V827Q548
825 617 825Q798 825 855 941Q888 1008 888 1084ZM931 420Q931 720 616 720Q576 720 525 717V254Q525 179 529 107Q570 100 644 100Q784 100 860 188Q931 272 931 420Z" />
<glyph unicode="C" glyph-name="null" horiz-adv-x="1479" d="M1415 175L1369 73Q1158 -43 897 -43Q375 -43 183 333Q94 507 94 710Q94 1038 312 1233Q535 1434 921 1434Q1166 1434 1400 1345L1413 1330Q1379 1192 1371 1007L1362 997H1303L1293 1008Q1290 1129
1282 1176Q1157 1317 921 1317Q678 1317 540 1163T402 745Q402 388 648 197Q779 95 999 95Q1199 95 1390 198L1415 175Z" />
<glyph unicode="D" glyph-name="null" horiz-adv-x="1702" d="M1608 786Q1608 447 1387 224Q1279 115 1125 55Q960 -10 740 -6L387 0Q243 2 149 -6L139 4V32L144 44Q218 91 224 103Q233 121 235 236L238 460V967Q238 1205 225 1277Q220 1306 191 1314Q176 1318
74 1324L64 1334V1402L74 1411Q180 1405 276 1405Q509 1405 696 1411Q789 1414 883 1414Q1143 1414 1282 1355Q1434 1290 1520 1151Q1608 1008 1608 786ZM1301 738Q1301 1015 1167 1164Q1097 1242 992 1274Q892 1304 713 1304Q620 1304 535 1291Q525 1179 525 749L527
312Q528 166 535 118Q623 104 715 104Q914 104 1029 162Q1153 225 1226 376Q1301 532 1301 738Z" />
<glyph unicode="E" glyph-name="null" horiz-adv-x="1241" d="M1165 334Q1143 188 1143 4L1133 -6L406 0Q224 0 149 -6L139 4V32L144 44Q218 91 224 103Q233 122 235 236L238 460V967Q238 1205 225 1277Q220 1306 191 1314Q176 1318 74 1324L64 1334V1402L74 1411Q175
1405 386 1405Q574 1405 1101 1411L1112 1403L1099 1292Q1093 1239 1090 1202L1083 1109L1073 1098H1015L1005 1108Q1004 1244 989 1263Q978 1277 882 1285T712 1293Q625 1293 536 1286Q525 1181 525 995V788Q604 783 653 783L784 784Q876 785 888 799Q904 817
909 934L919 944H981L991 934Q987 822 987 729Q987 628 991 508L981 499H914L904 509Q904 624 888 645T791 674Q730 679 661 679Q588 679 525 674V369Q525 238 530 115H666Q958 115 1024 138Q1035 142 1040 149Q1050 163 1059 209L1083 333L1093 344H1154L1165
334Z" />
<glyph unicode="F" glyph-name="null" horiz-adv-x="1142" d="M1066 1403L1053 1289Q1049 1251 1044 1189L1038 1109L1028 1098H970L960 1108Q958 1243 944 1262Q921 1293 665 1293Q624 1293 536 1287Q525 1185 525 921V786L638 783Q689 782 827 787Q854 788 863
802Q878 826 881 934L891 944H953L963 934Q959 822 959 729Q959 628 963 508L953 499H886L876 509Q876 614 867 632Q850 667 764 674Q705 679 648 679Q579 679 525 676V438Q525 201 538 128Q543 99 572 91Q579 89 715 81L725 71V4L714 -6L312 0Q226 1 74 -6L64
3V71L74 81Q176 87 191 91Q220 99 225 128Q238 201 238 438V967Q238 1204 225 1277Q220 1306 191 1314Q176 1318 74 1324L64 1334V1402L74 1411Q170 1405 382 1405Q519 1405 1056 1411L1066 1403Z" />
<glyph unicode="G" glyph-name="null" horiz-adv-x="1706" d="M1608 505L1598 494Q1536 479 1526 453T1516 250Q1516 165 1524 82Q1190 -44 918 -44Q560 -44 339 156T117 703Q117 1154 508 1346Q687 1434 963 1434Q1123 1434 1287 1399Q1422 1370 1500 1333L1509
1315Q1483 1227 1466 1009L1455 999H1395L1385 1009Q1385 1028 1381 1087T1371 1171Q1327 1231 1221 1273Q1107 1317 975 1317Q621 1317 486 1031Q424 899 424 725Q424 447 572 264Q726 74 973 74Q1104 74 1226 130Q1233 200 1233 322Q1233 421 1226 442Q1220 458
1188 465Q1161 471 1019 480L1008 490V553L1019 563Q1164 559 1323 560Q1415 561 1598 563L1608 553V505Z" />
<glyph unicode="H" glyph-name="null" horiz-adv-x="1706" d="M1642 4L1632 -6Q1533 0 1324 0Q1110 0 1016 -6L1006 3V71L1017 81Q1119 87 1134 91Q1163 99 1168 128Q1181 200 1181 438V679Q1130 684 857 684Q605 684 525 679V438Q525 200 538 128Q543 99 572
91Q587 87 689 81L699 71V4L690 -6Q590 0 382 0Q167 0 74 -6L64 3V71L74 81Q176 87 191 91Q220 99 225 128Q238 200 238 438V967Q238 1205 225 1277Q220 1306 191 1314Q176 1318 74 1324L64 1334V1402L74 1411Q170 1405 382 1405Q599 1405 690 1411L699 1402V1333L689
1324Q587 1318 572 1314Q543 1306 538 1277Q525 1205 525 967V802Q631 797 817 797Q1109 797 1181 802V967Q1181 1205 1168 1277Q1163 1306 1134 1314Q1119 1318 1017 1324L1006 1334V1402L1016 1411Q1113 1405 1324 1405Q1542 1405 1632 1411L1642 1402V1333L1633
1324Q1529 1318 1515 1314Q1486 1306 1481 1277Q1468 1205 1468 967V438Q1468 200 1481 128Q1486 99 1515 91Q1530 87 1632 81L1642 71V4Z" />
<glyph unicode="I" glyph-name="null" horiz-adv-x="797" d="M716 4L707 -6Q607 0 398 0Q190 0 90 -6L81 4V71L91 81Q193 87 208 91Q237 99 242 128Q255 200 255 438V967Q255 1205 242 1277Q237 1306 208 1314Q193 1318 91 1324L81 1334V1402L91 1411Q187 1405
399 1405Q610 1405 706 1411L716 1402V1334L706 1324Q604 1318 589 1314Q560 1306 555 1277Q542 1205 542 967V438Q542 200 555 128Q560 99 589 91Q604 87 706 81L716 71V4Z" />
<glyph unicode="J" glyph-name="null" horiz-adv-x="797" d="M741 1333L731 1324Q629 1318 614 1314Q585 1306 580 1277Q567 1204 567 967V223Q567 22 524 -90Q475 -218 348 -329Q209 -451 82 -451Q40 -451 0 -436Q5 -361 5 -251L28 -237Q109 -310 171 -310Q257
-310 267 -219Q280 -101 280 135V967Q280 1204 267 1277Q262 1306 233 1314Q226 1316 93 1324L83 1334V1402L93 1411Q231 1405 423 1405Q641 1405 731 1411L741 1402V1333Z" />
<glyph unicode="K" glyph-name="null" horiz-adv-x="1576" d="M1548 4L1538 -6Q1374 0 1311 0Q1255 0 1134 -6Q1111 44 1031 135L734 474Q637 584 525 676V438Q525 200 538 128Q543 99 572 91Q587 87 689 81L699 71V4L690 -6Q590 0 382 0Q167 0 74 -6L64 3V71L74
81Q176 87 191 91Q220 99 225 128Q238 200 238 438V967Q238 1205 225 1277Q220 1306 191 1314Q176 1318 74 1324L64 1334V1402L74 1411Q170 1405 382 1405Q599 1405 690 1411L699 1402V1333L689 1324Q587 1318 572 1314Q543 1306 538 1277Q525 1205 525 967V719Q712
893 793 977L935 1124Q1008 1200 1122 1332V1401L1133 1411Q1210 1405 1284 1405Q1371 1405 1488 1411L1498 1401V1339L1488 1329Q1372 1329 1316 1292Q1235 1238 1009 1024L807 832Q850 774 947 661L1171 401Q1420 112 1459 94Q1483 83 1538 82L1548 71V4Z" />
<glyph unicode="L" glyph-name="null" horiz-adv-x="1241" d="M1165 334Q1143 188 1143 4L1133 -6L406 0Q224 0 149 -6L139 4V32L144 44Q218 91 224 103Q233 121 235 236L238 460V967Q238 1205 225 1277Q220 1306 191 1314Q176 1318 74 1324L64 1334V1402L74 1411Q177
1405 376 1405Q582 1405 689 1411L699 1402V1333L689 1324Q587 1318 572 1314Q543 1306 538 1277Q525 1205 525 967V369Q525 238 530 115H666Q958 115 1024 138Q1035 142 1040 149Q1050 163 1059 209L1083 333L1093 344H1154L1165 334Z" />
<glyph unicode="M" glyph-name="null" horiz-adv-x="2048" d="M1976 4L1966 -6Q1867 0 1658 0Q1444 0 1350 -6L1341 3V71L1351 81Q1453 87 1468 91Q1497 99 1502 128Q1515 200 1515 438V1114L1292 657Q1273 619 1162 377L979 -23H912Q860 101 771 290L631 587L369
1132V438Q369 200 382 128Q387 99 416 91Q431 87 533 81L543 71V3L533 -6Q418 0 319 0Q204 0 88 -6L78 3V71L88 81Q190 87 205 91Q234 99 239 128Q252 200 252 438V967Q252 1205 239 1277Q234 1306 205 1314Q190 1318 88 1324L78 1334V1402L88 1411Q192 1405 351
1405Q473 1405 564 1411Q597 1335 658 1197L722 1059L1040 394L1193 704L1432 1215Q1474 1306 1514 1411Q1627 1405 1666 1405Q1862 1405 1966 1411L1976 1402V1333L1966 1324Q1864 1318 1849 1314Q1820 1306 1815 1277Q1802 1205 1802 967V438Q1802 200 1815 128Q1820
99 1849 91Q1864 87 1966 81L1976 71V4Z" />
<glyph unicode="N" glyph-name="null" horiz-adv-x="1706" d="M1640 1334L1629 1324Q1527 1318 1512 1314Q1483 1306 1478 1277Q1465 1205 1465 967V561Q1465 112 1478 -24L1465 -33Q1352 -14 1294 -6Q1026 295 379 1092V438Q379 200 392 128Q397 99 426 91Q441
87 543 81L553 71V3L543 -6Q428 0 329 0Q214 0 98 -6L88 3V71L98 81Q200 87 215 91Q244 99 249 128Q262 200 262 438V967Q262 1205 249 1277Q244 1306 215 1314Q200 1318 98 1324L88 1334V1402L98 1411Q193 1405 279 1405Q414 1405 503 1411Q863 931 1349 382V967Q1349
1205 1336 1277Q1331 1306 1302 1314Q1287 1318 1185 1324L1175 1334V1402L1185 1411Q1297 1405 1398 1405Q1527 1405 1630 1411L1640 1402V1334Z" />
<glyph unicode="O" glyph-name="null" horiz-adv-x="1706" d="M1612 739Q1612 370 1397 160Q1188 -44 826 -44Q484 -44 289 148T94 684Q94 1165 461 1350Q628 1434 872 1434Q1221 1434 1415 1251Q1612 1065 1612 739ZM1304 687Q1304 977 1188 1147T846 1318Q549
1318 452 1051Q402 914 402 744Q402 435 516 256Q634 71 869 71Q1154 71 1252 352Q1304 501 1304 687Z" />
<glyph unicode="P" glyph-name="null" horiz-adv-x="1250" d="M1198 1098Q1198 892 1058 777T740 661Q680 661 619 675Q610 702 584 747L605 769Q647 755 682 755Q783 755 844 826T905 1027Q905 1306 654 1306Q624 1306 534 1294Q525 1270 525 967V438Q525 200
538 128Q543 99 572 91Q581 89 709 81L720 70V4L710 -6Q573 0 382 0Q167 0 74 -6L64 3V70L75 81Q176 87 191 91Q220 99 225 128Q238 200 238 438V967Q238 1205 225 1277Q220 1306 191 1314Q176 1318 74 1324L64 1335V1401L75 1411Q173 1405 376 1405Q460 1405 618
1408T800 1411Q1074 1411 1156 1272Q1198 1200 1198 1098Z" />
<glyph unicode="Q" glyph-name="null" horiz-adv-x="1706" d="M1612 739Q1612 506 1521 329Q1427 147 1250 52T827 -44Q796 -44 764 -42Q852 -57 1072 -135L1228 -190Q1353 -234 1428 -234Q1479 -234 1584 -188L1594 -197V-251L1586 -265Q1403 -375 1382 -396Q1287
-396 1001 -309Q712 -221 629 -221Q581 -221 441 -308L426 -303L410 -257L414 -242Q434 -223 510 -171Q647 -77 731 -39Q442 -19 272 167Q94 361 94 684Q94 1033 299 1233T872 1434Q1322 1434 1514 1130Q1612 975 1612 739ZM1304 687Q1304 977 1188 1147T846 1318Q549
1318 452 1051Q402 914 402 744Q402 435 516 256Q634 71 869 71Q1154 71 1252 352Q1304 501 1304 687Z" />
<glyph unicode="R" glyph-name="null" horiz-adv-x="1462" d="M1433 4L1423 -6Q1416 -6 1385 -5Q1248 0 1214 0Q1163 0 1052 -6Q1048 18 1014 74L766 488L655 657Q634 688 596 718L607 752Q630 751 641 751Q739 751 795 782Q846 810 889 880T932 1047Q932 1216
806 1275Q746 1303 631 1303Q581 1303 535 1295Q525 1197 525 961V438Q525 200 538 128Q543 99 572 91Q587 87 689 81L699 71V4L690 -6Q590 0 382 0Q167 0 74 -6L64 3V71L74 81Q176 87 191 91Q220 99 225 128Q238 200 238 438V967Q238 1205 225 1277Q220 1306 191
1314Q176 1318 74 1324L64 1334V1402L74 1411Q172 1405 382 1405Q504 1405 580 1408Q731 1414 806 1414Q979 1414 1060 1383Q1169 1341 1206 1241Q1224 1192 1224 1125Q1224 853 918 739Q968 655 1024 569L1178 332Q1314 122 1359 93Q1382 78 1423 78L1433 68V4Z"
/>
<glyph unicode="S" glyph-name="null" horiz-adv-x="1251" d="M1144 462Q1144 297 1050 171Q968 60 835 6Q713 -44 544 -44Q334 -44 132 52L120 74Q148 189 148 401L158 411H222L231 401V378Q231 322 243 230Q279 166 372 120Q469 72 574 72Q772 72 848 210Q887
281 887 357Q887 485 780 540Q727 567 609 585Q342 626 258 688Q131 782 131 979Q131 1184 269 1306Q415 1434 675 1434Q909 1434 1053 1359L1060 1335Q1036 1216 1031 1049L1020 1039H957L947 1049Q944 1169 937 1205Q906 1252 829 1285Q747 1319 658 1319Q524
1319 446 1248Q373 1181 373 1075Q373 960 456 906Q510 871 711 839Q732 836 828 819Q887 809 937 790Q1038 752 1089 674Q1144 589 1144 462Z" />
<glyph unicode="T" glyph-name="null" horiz-adv-x="1366" d="M1325 1405Q1313 1331 1312 1252L1310 1085L1300 1075H1237L1226 1084Q1221 1212 1215 1234Q1203 1274 1151 1281Q1131 1284 963 1284H829Q827 1249 827 1006V438Q827 200 840 128Q845 99 874 91Q889
87 991 81L1001 71V4L991 -6Q892 0 683 0Q469 0 375 -6L366 3V71L376 81Q478 87 493 91Q522 99 527 128Q540 200 540 438V1006Q540 1253 537 1284H394Q215 1284 185 1273Q169 1267 163 1258Q154 1242 148 1194Q141 1141 139 1085L129 1075H66L55 1085L53 1256Q52
1328 41 1405L50 1415Q109 1405 480 1405H885Q1227 1405 1315 1415L1325 1405Z" />
<glyph unicode="U" glyph-name="null" horiz-adv-x="1593" d="M1540 1334L1530 1324Q1412 1324 1397 1261Q1389 1226 1385 1109Q1382 1022 1382 858V550Q1382 253 1265 126Q1110 -42 823 -42Q561 -42 414 45Q290 119 252 255Q228 342 228 709V967Q228 1205 215
1277Q210 1306 181 1314Q166 1318 64 1324L54 1334V1401L64 1411Q160 1405 372 1405Q588 1405 679 1411L689 1401V1334L679 1324Q577 1318 562 1314Q533 1306 528 1277Q515 1205 515 967V761Q515 383 549 298Q617 130 884 130Q1059 130 1157 216Q1203 257 1221
299T1249 429Q1258 511 1258 595V803Q1258 1065 1256 1161Q1254 1251 1244 1278Q1236 1298 1209 1309Q1186 1318 1086 1324L1076 1334V1401L1086 1411Q1173 1405 1265 1405Q1334 1405 1530 1411L1540 1401V1334Z" />
<glyph unicode="V" glyph-name="null" horiz-adv-x="1593" d="M1560 1333L1550 1323Q1480 1316 1461 1307T1419 1261Q1395 1222 1333 1073L1262 904L1128 578Q955 158 895 -13H743L284 1100Q211 1274 182 1300Q160 1321 60 1323L50 1334V1400L61 1411Q166 1405
326 1405Q526 1405 690 1411L700 1400V1333L691 1323Q590 1322 558 1305Q541 1295 541 1271Q541 1245 606 1081L653 962L906 337L1128 894Q1141 926 1188 1055Q1256 1241 1256 1272Q1256 1305 1234 1312T1100 1323L1090 1333V1401L1101 1411Q1214 1405 1336 1405Q1423
1405 1549 1411L1560 1400V1333Z" />
<glyph unicode="W" glyph-name="null" horiz-adv-x="2048" d="M2036 1336L2026 1327Q1979 1325 1972 1324Q1939 1318 1923 1302T1895 1251Q1871 1185 1806 955Q1773 839 1713 607L1623 261Q1567 47 1560 -13H1407L1356 125Q1229 467 1122 737L1065 880Q1046 929
1026 984L765 365Q726 273 656 97L612 -13H466L219 1134Q200 1222 191 1249Q171 1312 134 1320Q117 1324 56 1328L46 1337V1400L57 1411Q234 1405 325 1405Q433 1405 641 1411L652 1401V1337L642 1328Q574 1325 565 1324Q527 1320 515 1309T503 1272Q503 1249 522
1147L556 964Q571 885 609 709L668 438L794 741Q832 831 908 1012L1026 1298Q1059 1377 1078 1429H1170Q1272 1141 1550 451L1727 1160Q1747 1245 1747 1266Q1747 1311 1700 1318Q1683 1321 1593 1327L1583 1337V1400L1594 1411Q1766 1404 1794 1405L2026 1411L2036
1401V1336Z" />
<glyph unicode="X" glyph-name="null" horiz-adv-x="1366" d="M1329 7L1319 -3L1115 0Q1065 1 940 -3Q910 34 842 160L634 545L555 432Q405 217 277 -3Q231 0 185 0Q92 0 49 -3L39 7V71L49 82Q131 88 148 99Q178 118 284 262L415 439Q423 449 575 655L499 789L377
1000Q247 1224 179 1265Q156 1279 131 1279Q111 1279 69 1276L56 1286L48 1339L57 1354Q198 1383 420 1434Q483 1393 550 1286Q582 1234 650 1108L763 898L893 1088Q1054 1324 1102 1409Q1143 1405 1183 1405Q1250 1405 1319 1409L1329 1399V1333L1319 1323Q1250
1322 1228 1308T1140 1213T969 988Q910 908 825 789Q875 697 968 530L1096 310Q1202 128 1229 105T1319 81L1329 71V7Z" />
<glyph unicode="Y" glyph-name="null" horiz-adv-x="1366" d="M1349 1364Q1191 1149 1003 837Q897 661 886 612Q880 586 880 537V438Q880 145 898 112Q906 98 921 94Q946 87 1044 81L1054 71V4L1044 -6Q945 0 736 0Q522 0 428 -6L419 3V71L429 81Q527 87 552 94Q567
98 575 112Q593 145 593 438V556Q593 594 436 860Q276 1131 181 1228Q135 1275 119 1281T44 1288L33 1299V1355L43 1366Q287 1414 356 1434Q408 1409 449 1369Q534 1286 677 999L808 737Q867 832 1033 1119L1144 1318Q1162 1351 1193 1409H1339L1349 1399V1364Z"
/>
<glyph unicode="Z" glyph-name="null" horiz-adv-x="1366" d="M1281 347Q1260 165 1249 3L1239 -6Q828 2 615 2Q459 2 62 -6L52 3V73Q126 166 278 382L424 590L611 865Q704 1001 889 1286L638 1285Q347 1284 303 1271Q277 1264 267 1231Q263 1218 250 1138L242
1088L231 1078H170L160 1090Q167 1196 167 1281Q167 1308 165 1401L175 1411Q311 1405 781 1405Q892 1405 1264 1411L1274 1401V1341L1192 1226Q1063 1048 970 912L674 478Q624 405 441 120Q494 118 602 118Q1109 118 1142 146Q1160 161 1188 300Q1194 329 1199
348L1210 358H1270L1281 347Z" />
<glyph unicode="[" glyph-name="null" horiz-adv-x="682" d="M627 -215L618 -225Q461 -218 402 -218Q314 -218 156 -226L141 -208Q151 -96 156 67Q157 144 160 277L164 484V773Q164 859 160 1005L154 1224Q151 1320 141 1469L152 1482Q294 1475 399 1475Q460 1475
618 1481L627 1472V1412L617 1401Q445 1394 425 1375T399 1221Q397 1159 395 995L393 810L395 261Q398 -30 405 -72T438 -127T617 -145L627 -155V-215Z" />
<glyph unicode="\" glyph-name="null" horiz-adv-x="606" d="M623 -51L616 -65H482L468 -57L-18 1494L-11 1508H123L137 1499L623 -51Z" />
<glyph unicode="]" glyph-name="null" horiz-adv-x="682" d="M541 -208L526 -226Q368 -218 280 -218Q221 -218 64 -225L55 -215V-155L65 -145Q217 -140 243 -127T277 -72T287 261L289 447V810Q289 867 287 995Q284 1304 274 1341Q263 1382 214 1391Q186 1396 65
1401L55 1412V1472L64 1481Q222 1475 283 1475Q388 1475 530 1482L541 1469Q531 1320 528 1224L522 1005Q518 859 518 773V484L531 -84Q533 -119 541 -208Z" />
<glyph unicode="^" glyph-name="null" horiz-adv-x="1024" d="M993 661H794L512 1212L230 661H31L418 1419H606L993 661Z" />
<glyph unicode="_" glyph-name="null" horiz-adv-x="1024" d="M1024 -333H0V-211H1024V-333Z" />
<glyph unicode="`" glyph-name="null" horiz-adv-x="682" d="M533 1119L477 1089L149 1474L174 1502L393 1473L533 1132V1119Z" />
<glyph unicode="a" glyph-name="null" horiz-adv-x="1024" d="M977 6L966 -5Q882 0 773 0Q688 0 610 -5L601 6L610 140L416 -8Q393 -25 350 -29Q333 -31 310 -31Q199 -31 140 36T80 221Q80 377 179 442Q286 513 610 570Q610 729 526 783Q475 816 404 816Q326 816
281 784L243 691L230 684L179 696L172 710L177 828Q342 950 425 966Q460 973 516 973Q713 973 797 870Q858 795 858 640Q858 602 855 518Q850 378 850 331Q850 180 855 139T878 86T967 73L977 62V6ZM610 239V485Q445 449 388 408T330 281Q330 145 449 145Q550 145
610 239Z" />
<glyph unicode="b" glyph-name="null" horiz-adv-x="1251" d="M1145 575Q1145 394 1059 262Q1022 205 992 182T865 91Q844 76 752 11Q704 -23 643 -36Q605 -44 558 -44Q440 -44 307 39L214 -36L169 -20Q188 298 188 534V927Q188 979 183 1169Q182 1222 178 1264Q173
1316 125 1325Q114 1327 42 1330L32 1341V1396L42 1407Q233 1427 429 1490L451 1478Q438 1104 438 899V793L559 894Q649 969 766 969Q1008 969 1101 777Q1145 686 1145 575ZM888 463Q888 610 821 698T639 786Q573 786 512 751Q461 722 438 684V212Q513 101 645
101Q763 101 827 203Q888 300 888 463Z" />
<glyph unicode="c" glyph-name="null" horiz-adv-x="909" d="M861 126L817 27Q681 -44 549 -44Q326 -44 208 84T90 435Q90 641 181 748Q206 778 276 827Q420 929 468 949T617 969Q753 969 842 928L852 910Q851 897 838 817L827 749Q824 732 818 615L808 605H748L738
615Q732 704 724 739Q680 817 555 817Q343 817 343 542Q343 342 428 227Q515 108 673 108Q769 108 842 149L861 126Z" />
<glyph unicode="d" glyph-name="null" horiz-adv-x="1251" d="M1200 3L1190 -7Q1092 0 1013 0Q938 0 810 -7L801 0Q805 49 805 164Q769 134 702 72Q619 -5 594 -20Q562 -35 490 -35Q319 -35 214 94T109 428Q109 627 190 738Q211 767 314 841Q434 927 489 950Q537
970 611 970Q715 970 805 926V982Q805 1245 792 1292Q785 1318 751 1324Q735 1327 659 1330L649 1341V1396L659 1407Q851 1427 1046 1490L1068 1478Q1068 1474 1064 1379Q1055 1164 1055 733V410Q1055 129 1068 101Q1076 84 1090 80Q1112 73 1190 67L1200 57V3ZM805
525V713Q733 799 667 823Q622 839 571 839Q433 839 393 697Q371 618 371 521Q371 314 468 214Q519 161 605 161Q676 161 737 206Q792 246 802 292Q805 306 805 525Z" />
<glyph unicode="e" glyph-name="null" horiz-adv-x="1024" d="M952 561Q952 544 951 510L940 496Q808 460 590 460Q551 460 472 459T353 457Q359 310 444 214Q533 111 676 111Q772 111 904 177L928 148L884 49Q738 -44 567 -44Q342 -44 218 83T93 445Q93 724 226
827Q410 969 575 969Q754 969 852 866Q952 760 952 561ZM691 587Q691 857 523 857Q346 857 346 589V567Q404 558 552 558Q629 558 690 567Q691 581 691 587Z" />
<glyph unicode="f" glyph-name="null" horiz-adv-x="797" d="M780 1481L776 1374L778 1274L747 1256Q699 1306 625 1306Q509 1306 495 1217Q488 1172 488 1037V897H579Q647 897 755 905L769 894L746 780L736 770L593 771Q517 771 488 770V592Q488 138 502 107Q510
89 529 84Q559 77 667 74L677 64V3L667 -7L593 -4Q487 0 363 0Q184 0 90 -7L80 3V64L90 74Q186 77 209 89Q229 98 231 137Q238 267 238 592V770Q216 771 211 771Q200 771 153 768Q130 767 90 765L80 775V806L89 820L178 866Q204 878 233 895Q238 901 238 913V928Q238
1082 258 1138Q269 1168 300 1206Q309 1217 430 1332L492 1391Q519 1418 561 1455Q616 1495 695 1495Q737 1495 780 1481Z" />
<glyph unicode="g" glyph-name="null" horiz-adv-x="1138" d="M1117 -69Q1117 -288 954 -418T526 -548Q319 -548 199 -471T78 -262Q78 -174 117 -129Q121 -124 223 -63Q272 -34 295 -22Q157 2 157 111Q157 169 197 229Q200 233 251 269Q275 286 336 330Q120 408
120 619Q120 782 242 881T567 981Q763 981 874 894Q937 891 955 892Q1004 894 1103 897L1115 886L1104 783L1093 773H945Q958 725 958 675Q958 437 727 350Q623 311 522 311Q488 311 434 316Q371 282 371 227Q371 176 444 169Q486 165 584 165Q615 165 692 168T806
171Q1032 171 1087 71Q1117 17 1117 -69ZM706 630Q706 882 537 882Q371 882 371 664Q371 406 544 406Q706 406 706 630ZM888 -183Q888 -74 812 -46Q780 -34 684 -33L494 -31Q462 -31 406 -33Q269 -118 269 -228Q269 -329 350 -386T567 -444Q713 -444 800 -374T888
-183Z" />
<glyph unicode="h" glyph-name="null" horiz-adv-x="1251" d="M1208 4L1198 -7Q1088 0 1012 0Q942 0 808 -7L798 3Q816 226 816 347V543Q816 787 640 787Q546 787 494 722Q452 670 452 588V470Q452 267 459 137Q461 98 481 89Q504 77 600 74L611 64V3L601 -7Q506
0 327 0Q148 0 54 -7L44 3V64L54 74Q150 77 173 89Q193 98 195 137Q202 267 202 592V927Q202 1137 195 1267Q193 1304 173 1315T57 1330L47 1341V1396L57 1407Q250 1428 444 1490L465 1478Q465 1451 462 1379Q452 1140 452 850V794L628 942Q694 969 773 969Q932
969 1011 873Q1075 795 1075 644Q1075 627 1071 522T1067 331Q1067 180 1072 139T1095 86T1199 73L1208 63V4Z" />
<glyph unicode="i" glyph-name="null" horiz-adv-x="682" d="M487 1308Q487 1244 442 1199T334 1153Q270 1153 225 1198T180 1308Q180 1374 225 1419T334 1464Q396 1464 441 1419T487 1308ZM625 3L615 -7Q520 0 341 0Q162 0 68 -7L58 3V64L68 74Q164 77 187 89Q207
98 209 137Q216 267 216 416V559Q216 753 201 789Q193 809 158 814Q146 816 71 819L61 829V885L71 896Q263 913 458 979L479 966Q466 784 466 659V340Q466 267 473 137Q475 98 495 89Q518 77 614 74L625 64V3Z" />
<glyph unicode="j" glyph-name="null" horiz-adv-x="682" d="M483 1308Q483 1244 438 1199T330 1153Q266 1153 221 1198T176 1308Q176 1372 221 1418T330 1464Q392 1464 437 1419T483 1308ZM476 966Q463 902 463 659V489L465 195Q467 -133 409 -281Q331 -478 184
-532Q124 -554 65 -554Q48 -554 27 -551L5 -479L15 -465Q33 -467 45 -467Q150 -467 183 -361Q213 -263 213 149V559Q213 738 200 782Q193 807 160 813Q145 816 67 819L57 829V885L67 896Q258 913 454 979L476 966Z" />
<glyph unicode="k" glyph-name="null" horiz-adv-x="1251" d="M1230 3L1220 -7Q1153 -3 1057 -3Q968 -3 881 -7Q825 95 610 332Q497 457 466 479L473 137Q475 98 495 89Q518 77 614 74L625 64V3L615 -7Q520 0 341 0Q162 0 68 -7L58 3V64L68 74Q164 77 187 89Q207
98 209 137Q216 267 216 592V927Q216 1137 209 1267Q207 1304 187 1315T71 1330L61 1341V1396L71 1407Q264 1428 458 1490L479 1478Q479 1451 476 1379Q466 1140 466 850V523L565 604Q630 657 747 781L851 891Q880 922 897 945Q982 942 1035 942Q1102 942 1156
945L1166 935V875L1156 865L1083 861Q1039 859 992 826Q974 813 916 766L832 697L802 669L717 593L931 343Q1135 105 1176 85Q1197 75 1220 75L1230 64V3Z" />
<glyph unicode="l" glyph-name="null" horiz-adv-x="682" d="M625 3L615 -7Q520 0 341 0Q162 0 68 -7L58 3V64L68 74Q164 77 187 89Q207 98 209 137Q216 267 216 592V927Q216 1137 209 1267Q207 1304 187 1315T71 1330L61 1341V1396L71 1407Q264 1428 458 1490L479
1478Q479 1451 476 1379Q466 1140 466 850V592Q466 267 473 137Q475 98 495 89Q518 77 614 74L625 64V3Z" />
<glyph unicode="m" glyph-name="null" horiz-adv-x="1821" d="M1775 5L1765 -6Q1707 0 1559 0Q1436 0 1384 -6L1370 13Q1386 262 1386 376V467Q1386 614 1377 664Q1366 724 1327 760T1221 796Q1146 796 1096 754T1046 647V349L1050 191Q1052 127 1061 107Q1067
94 1088 88Q1106 83 1185 75L1196 65V5L1184 -6Q1063 0 939 0Q785 0 675 -6L664 5V64L674 76Q737 82 761 87Q779 91 787 117Q793 136 794 228L796 551Q796 663 779 711Q765 749 726 774Q691 797 634 797Q544 797 491 737Q466 709 462 692T457 617V400Q457 336 461
234Q465 129 469 112Q475 91 502 84T586 75L596 65V4L586 -6Q501 0 332 0Q153 0 59 -7L49 3V64L59 74Q155 77 178 89Q198 98 200 137Q207 267 207 416V559Q207 759 192 789Q182 809 149 814Q137 816 62 819L52 829V885L62 896Q242 913 441 979L463 966L461 807L639
951Q688 973 755 973Q870 973 934 936T1037 804L1219 951Q1268 974 1338 974Q1531 974 1606 834Q1639 772 1639 644Q1639 591 1638 565L1637 527Q1635 479 1635 463V333Q1635 182 1640 141T1663 88T1765 75L1775 64V5Z" />
<glyph unicode="n" glyph-name="null" horiz-adv-x="1251" d="M1208 4L1198 -7Q1088 0 1012 0Q942 0 808 -7L798 3Q816 226 816 347V543Q816 787 640 787Q548 787 496 724Q452 671 452 617V430Q452 171 465 112Q473 77 581 75L591 65V4L581 -6Q496 0 327 0Q148
0 54 -7L44 3V64L54 74Q150 77 173 89Q193 98 195 137Q202 267 202 416V559Q202 759 187 789Q177 809 144 814Q132 816 57 819L47 829V885L57 896Q237 913 436 979L458 966L456 798L628 942Q694 969 773 969Q932 969 1011 873Q1075 795 1075 644Q1075 627 1071
505T1067 331Q1067 180 1072 139T1095 86T1199 73L1208 63V4Z" />
<glyph unicode="o" glyph-name="null" horiz-adv-x="1139" d="M1057 496Q1057 142 819 17Q703 -44 554 -44Q324 -44 204 89T83 470Q83 813 317 927Q432 983 584 983Q903 983 1007 762Q1057 656 1057 496ZM780 414Q780 663 726 770T559 878Q360 878 360 519Q360
58 583 58Q722 58 760 211Q780 291 780 414Z" />
<glyph unicode="p" glyph-name="null" horiz-adv-x="1251" d="M1156 580Q1156 457 1112 345Q1080 263 1028 206Q1005 181 942 134Q876 81 777 6Q718 -33 627 -33Q540 -33 453 -1V-376Q453 -422 464 -437Q470 -445 491 -450Q507 -454 619 -462L630 -472V-534L620
-544Q485 -536 313 -536Q187 -536 61 -544L51 -534V-474L61 -463Q162 -460 177 -447Q187 -438 189 -428Q193 -409 197 -330Q200 -270 201 -177L203 -22V559Q203 569 197 707Q194 772 187 790T145 814Q133 816 57 819L47 829V885L57 896Q248 913 444 979L466 966Q466
923 457 793Q524 849 626 932Q675 969 777 969Q1025 969 1115 779Q1156 692 1156 580ZM899 457Q899 675 784 751Q723 791 657 791Q534 791 453 690V194Q544 98 653 98Q816 98 871 267Q899 352 899 457Z" />
<glyph unicode="q" glyph-name="null" horiz-adv-x="1251" d="M1203 -534L1193 -544Q1044 -536 941 -536Q833 -536 634 -544L624 -534V-472L635 -462Q771 -452 790 -437Q801 -428 801 -376V146Q655 31 593 -24Q553 -44 493 -44Q319 -44 217 73Q108 196 108 419Q108
622 192 734Q220 771 319 838Q427 909 519 946Q576 969 641 969Q780 969 936 882L1040 968L1085 946L1069 843Q1061 791 1056 669Q1051 558 1051 424V-22Q1051 -244 1055 -330Q1060 -434 1075 -447Q1084 -455 1097 -458T1193 -463L1203 -474V-534ZM801 266V726Q717
841 580 841Q364 841 364 502Q364 349 420 252Q481 147 599 147Q725 147 801 266Z" />
<glyph unicode="r" glyph-name="null" horiz-adv-x="797" d="M795 966L788 788Q787 744 784 688L742 675Q695 743 612 743Q537 743 488 683Q458 646 458 574V340Q458 267 465 137Q467 100 486 89T625 74L635 65V4L625 -6Q478 0 333 0Q154 0 60 -7L50 3V64L60 74Q156
77 179 89Q199 98 201 137Q208 267 208 416V559Q208 759 193 789Q183 809 150 814Q138 816 63 819L53 829V885L63 896Q243 913 442 979L464 966L462 770Q524 842 612 938Q653 978 724 978Q766 978 795 966Z" />
<glyph unicode="s" glyph-name="null" horiz-adv-x="909" d="M839 314Q839 153 718 55T400 -44Q261 -44 102 16L91 31Q100 123 102 174L107 300L117 311H176L188 300Q192 188 197 168Q282 59 420 59Q508 59 561 102T614 217Q614 308 534 338Q500 351 399 372Q234
407 178 452Q93 520 93 653Q93 798 198 886Q308 978 496 978Q656 978 762 924L771 908Q760 863 754 677L743 667H686L675 677Q671 749 661 794Q598 874 478 874Q400 874 350 836T300 736Q300 653 385 625Q423 613 533 591Q701 558 755 515Q839 448 839 314Z" />
<glyph unicode="t" glyph-name="null" horiz-adv-x="682" d="M666 131Q659 123 623 89Q564 33 522 -13Q473 -29 423 -29Q284 -29 220 52Q193 87 184 133Q174 188 175 277L178 516V766H151L98 764H57L46 773V799L54 814Q72 826 110 850Q155 878 178 897V1033Q178
1118 170 1213Q245 1237 291 1255T423 1316L449 1296Q437 1172 432 1074L423 901H456Q565 901 644 908L655 897L641 780L631 770H423V431Q423 268 427 239Q432 197 462 171T545 145Q586 145 644 167L666 131Z" />
<glyph unicode="u" glyph-name="null" horiz-adv-x="1251" d="M1201 5L1191 -5Q1041 0 1002 0Q969 0 904 -2T807 -5L799 3Q807 85 807 159Q755 120 625 -7Q560 -32 486 -32Q351 -32 273 41T195 253Q195 270 197 325T199 431V559Q199 757 184 789Q174 809 141 814Q129
816 53 819L43 829V885L53 896Q244 913 440 979L462 966Q449 800 449 659V464Q449 327 458 277Q468 217 505 186T606 155Q684 155 743 205Q799 255 802 319Q804 368 804 380V559Q804 755 789 789Q780 809 747 814Q735 816 659 819L648 829V885L659 896Q849 913
1046 979L1067 966Q1054 816 1054 659V345Q1054 134 1066 106Q1072 92 1086 88Q1110 81 1190 76L1201 66V5Z" />
<glyph unicode="v" glyph-name="null" horiz-adv-x="1138" d="M1118 873L1108 862Q1047 858 1028 847Q1014 839 994 803T919 641L728 198Q718 174 642 -17H467Q411 141 345 306Q240 569 166 758Q133 842 95 856Q73 864 36 865L25 876V934L36 944Q128 941 303 941Q457
941 544 944L555 934V875L544 864Q470 862 448 855T426 828Q426 800 549 476Q614 303 634 259Q698 409 756 553Q851 788 851 828Q851 849 831 855T732 865L721 875V934L732 944Q809 941 914 941Q1027 941 1108 944L1118 934V873Z" />
<glyph unicode="w" glyph-name="null" horiz-adv-x="1706" d="M1679 874L1668 864Q1609 862 1593 856T1566 833T1523 732Q1486 632 1450 524L1334 176Q1319 132 1304 78L1277 -17H1113L1004 251L843 622Q705 333 597 67L563 -17H401Q398 -9 383 59Q374 98 358
156L211 680Q178 796 165 826Q155 846 139 853T42 864L32 875V934L43 944Q121 941 301 941Q485 941 575 944L586 934V874L575 865Q497 865 471 858T445 828Q445 807 455 769L576 308L816 842Q841 902 870 969H972L1255 308L1353 606Q1408 773 1408 822Q1408 847
1391 853T1279 864L1268 874V933L1280 944Q1355 941 1488 941Q1586 941 1668 944L1679 934V874Z" />
<glyph unicode="x" glyph-name="null" horiz-adv-x="1024" d="M987 8L977 -2Q926 0 826 0Q696 0 672 -2Q654 22 610 95Q588 131 545 204L468 340Q341 172 232 -2Q199 0 145 0Q78 0 56 -2L44 9V67L55 78Q110 79 130 92T218 187Q291 276 411 434L280 653Q223 749
201 780Q177 815 158 826T111 838Q102 838 69 834L55 843L44 897L53 911Q222 944 341 975Q418 918 574 640Q648 736 740 873L793 952Q854 949 896 949Q936 949 975 952L987 940V883L977 873Q924 869 906 859T837 793Q805 758 718 652L632 548L776 293Q878 112 907
94Q920 86 977 78L987 67V8Z" />
<glyph unicode="y" glyph-name="null" horiz-adv-x="1139" d="M1117 873L1108 864Q1042 864 1018 826Q1005 804 947 679Q816 394 730 181L569 -217Q494 -402 408 -480Q327 -553 210 -553Q136 -553 67 -518Q84 -447 102 -319L128 -314Q180 -388 269 -388Q374 -388
462 -183L503 -87L179 755Q151 828 128 845T35 864L25 874V934L36 944Q100 941 281 941Q449 941 554 944L564 934V874L554 864Q440 864 440 823Q440 805 450 779Q466 733 499 642L645 256L733 467Q862 776 862 828Q862 864 746 864L736 874V934L747 944Q805 941
943 941Q1021 941 1106 944L1117 934V873Z" />
<glyph unicode="z" glyph-name="null" horiz-adv-x="1024" d="M948 308Q926 103 926 0L919 -7Q599 1 442 1Q318 1 46 -7L35 3V60Q138 174 592 831H475Q247 831 226 813Q214 802 208 762Q206 746 195 682L193 668L182 658H123L112 668Q120 846 120 876Q120 907
119 937L128 946Q161 944 228 942Q249 941 473 939L618 938Q684 938 917 945L927 934V873L746 628Q680 538 589 408L456 217Q404 142 382 107L490 105Q549 104 685 110Q807 115 820 127T866 308L877 318H937L948 308Z" />
<glyph unicode="{" glyph-name="null" horiz-adv-x="635" d="M599 -247L528 -248Q360 -248 284 -194Q194 -130 194 30V401Q194 502 169 543Q156 564 138 577Q109 598 74 603L0 613V653L74 663Q109 668 138 689Q176 717 188 776Q194 806 194 865V1236Q194 1396
284 1460Q360 1514 528 1514Q545 1514 599 1513V1473Q417 1454 402 1326Q400 1309 400 1246V897Q400 767 352 712T194 633Q303 610 350 556Q400 499 400 369V20Q400 -43 402 -60Q417 -188 599 -207V-247Z" />
<glyph unicode="|" glyph-name="null" horiz-adv-x="1024" d="M433 0V1497H590V0H433Z" />
<glyph unicode="}" glyph-name="null" horiz-adv-x="635" d="M635 613L561 603Q526 598 497 577Q459 549 447 490Q441 460 441 401V30Q441 -130 351 -194Q275 -248 107 -248Q90 -248 36 -247V-207Q218 -188 233 -60Q235 -43 235 20V369Q235 499 285 556Q332 610
441 633Q332 656 285 710Q235 767 235 897V1246Q235 1309 233 1326Q218 1454 36 1473V1513L107 1514Q275 1514 351 1460Q441 1396 441 1236V865Q441 764 466 723Q479 702 497 689Q526 668 561 663L635 653V613Z" />
<glyph unicode="~" glyph-name="null" horiz-adv-x="1024" d="M989 601Q940 494 876 438Q795 366 719 366Q656 366 560 409Q503 434 411 480Q350 510 316 510Q236 510 135 328L34 440Q151 693 313 693Q376 693 472 650Q529 625 621 579Q682 549 716 549Q797 549
890 717L989 601Z" />
</font>
</defs>
</svg>
